<?xml version="1.0" encoding="utf-8"?>
<!-- Generator: Adobe Illustrator 25.0.0, SVG Export Plug-In . SVG Version: 6.00 Build 0)  -->
<svg version="1.1" id="Layer_1" xmlns="http://www.w3.org/2000/svg" xmlns:xlink="http://www.w3.org/1999/xlink" x="0px" y="0px"
	 viewBox="0 0 275.71 275.71" style="enable-background:new 0 0 275.71 275.71;" xml:space="preserve">
<style type="text/css">
	.st0{fill:#FFFFFF;}
</style>
<g>
	<g>
		<g>
			<polygon class="st0" points="128.81,226.07 45.96,143.23 56.71,132.48 113.61,189.38 113.61,67.99 128.81,67.99 			"/>
		</g>
		<g>
			<polygon class="st0" points="162.1,207.73 146.91,207.73 146.91,49.64 229.75,132.48 219,143.23 162.1,86.33 			"/>
		</g>
	</g>
	<g>
		<path class="st0" d="M137.86,275.71C61.84,275.71,0,213.87,0,137.86S61.84,0,137.86,0s137.86,61.84,137.86,137.86
			S213.87,275.71,137.86,275.71z M137.86,15.2C70.22,15.2,15.2,70.22,15.2,137.86s55.02,122.66,122.66,122.66
			s122.66-55.03,122.66-122.66S205.49,15.2,137.86,15.2z"/>
	</g>
</g>
</svg>
